<?xml version="1.0" encoding="UTF-8"?>
<svg version="1.1" xmlns="http://www.w3.org/2000/svg" width="912" height="273">
<path d="M0 0 C119.46 0 238.92 0 362 0 C362.33 14.52 362.66 29.04 363 44 C365.97 48.95 368.94 53.9 372 59 C373.85974435 62.10115331 375.71607753 65.20351577 377.5625 68.3125 C378.21702148 69.40208008 378.21702148 69.40208008 378.88476562 70.51367188 C382 75.77093554 382 75.77093554 382 78 C382.66 78 383.32 78 384 78 C384.25974609 77.30543701 384.51949219 76.61087402 384.78710938 75.89526367 C386.13132131 72.68652589 387.72004438 69.71889754 389.40625 66.67578125 C389.73161743 66.08830612 390.05698486 65.50083099 390.39221191 64.89555359 C391.07656926 63.66189052 391.7624264 62.42905837 392.44970703 61.19702148 C393.50118125 59.31038051 394.54577629 57.42004469 395.58984375 55.52929688 C396.25740257 54.32789713 396.92535758 53.12671742 397.59375 51.92578125 C398.19896484 50.83692627 398.80417969 49.74807129 399.42773438 48.6262207 C401 46 401 46 403 44 C409.27 44 415.54 44 422 44 C422 71.72 422 99.44 422 128 C416.06 128.33 410.12 128.66 404 129 C403.67 111.51 403.34 94.02 403 76 C398.98689253 83.49034374 398.98689253 83.49034374 394.98388672 90.98608398 C391.6242476 97.22247347 388.06776541 103.19884345 384 109 C381.18236315 106.34486099 379.08030665 103.78217585 377.125 100.4453125 C376.61453125 99.58292969 376.1040625 98.72054687 375.578125 97.83203125 C375.05734375 96.93871094 374.5365625 96.04539062 374 95.125 C372.95969626 93.35596864 371.91806017 91.58772001 370.875 89.8203125 C370.41867187 89.03930176 369.96234375 88.25829102 369.4921875 87.45361328 C367.74358979 84.57838308 365.87259889 81.79568105 364 79 C363.99061433 79.55052756 363.98122866 80.10105513 363.97155857 80.66826534 C363.74315054 94.04607505 363.50929006 107.42377978 363.26950932 120.80139065 C363.15372072 127.27062802 363.0397661 133.73988709 362.92993164 140.20922852 C362.82396608 146.44678266 362.71327611 152.68423636 362.59924126 158.92164803 C362.55647205 161.30717037 362.51543595 163.69272441 362.4761219 166.0783062 C362.42097528 169.40703984 362.35979292 172.7356098 362.29711914 176.06420898 C362.28201294 177.06114273 362.26690674 178.05807648 362.25134277 179.08522034 C362.2331398 179.98690948 362.21493683 180.88859863 362.19618225 181.81761169 C362.17544191 182.9998112 362.17544191 182.9998112 362.15428257 184.20589352 C362 186 362 186 361 187 C359.08174138 187.09768372 357.15982545 187.12371314 355.23908138 187.12304783 C353.97958453 187.12503888 352.72008768 187.12702993 351.42242426 187.12908131 C350.0065458 187.12622771 348.59066752 187.12328211 347.17478943 187.12025452 C345.68487326 187.12069009 344.19495716 187.12156473 342.70504147 187.12284368 C338.59132298 187.12509143 334.47763028 187.12106356 330.36391509 187.11606562 C325.93512509 187.11176529 321.50633666 187.11320725 317.07754517 187.1139679 C309.39787384 187.1144934 301.71821099 187.11134387 294.03854179 187.10573006 C282.93489586 187.09761858 271.83125404 187.0950002 260.72760547 187.09374207 C242.71464156 187.09155099 224.70168216 187.0848894 206.6887207 187.07543945 C189.18611676 187.06626677 171.68351405 187.0591967 154.1809082 187.05493164 C153.09185761 187.05466364 152.00280702 187.05439565 150.88075489 187.05411953 C142.36423638 187.05204022 133.84771784 187.05008326 125.33119929 187.04816496 C83.55412871 187.03872357 41.77706944 187.0186071 0 187 C0 125.29 0 63.58 0 0 Z M242 45 C241.90492179 47.58639038 241.87443624 50.1459856 241.88647461 52.73266602 C241.88632858 53.5423584 241.88618256 54.35205078 241.8860321 55.1862793 C241.88673146 57.87551508 241.8945249 60.56468249 241.90234375 63.25390625 C241.90420785 65.11335716 241.90563179 66.97280856 241.90663147 68.83226013 C241.91045729 73.73629096 241.92028812 78.64029236 241.93133545 83.54431152 C241.94154819 88.54451092 241.94612879 93.54471506 241.95117188 98.54492188 C241.96191033 108.36329421 241.97898752 118.18164466 242 128 C259.91087352 130.62060975 277.64058487 130.27586921 292.9296875 119.66015625 C297.77245058 115.90857369 300.4765037 111.52942572 303 106 C303.309375 105.33484375 303.61875 104.6696875 303.9375 103.984375 C308.36910007 92.82015176 308.30939254 78.37577167 303.92578125 67.28125 C301.62110566 62.3374664 299.19308449 58.57946237 295 55 C294.154375 54.175 293.30875 53.35 292.4375 52.5 C284.52709616 46.0073049 274.29001468 43.87708894 264.32421875 43.8671875 C262.46506836 43.86525391 262.46506836 43.86525391 260.56835938 43.86328125 C259.28767578 43.86714844 258.00699219 43.87101562 256.6875 43.875 C255.38748047 43.87113281 254.08746094 43.86726563 252.74804688 43.86328125 C251.51505859 43.86457031 250.28207031 43.86585937 249.01171875 43.8671875 C247.88209717 43.86831543 246.75247559 43.86944336 245.58862305 43.87060547 C243.07004469 43.70631405 243.07004469 43.70631405 242 45 Z M32 45 C31.98541748 46.8164502 31.97083496 48.63290039 31.95581055 50.50439453 C31.90407344 56.51955825 31.83876465 62.5344476 31.76428509 68.54936409 C31.71964043 72.19467057 31.68037175 75.83986681 31.65356445 79.48535156 C31.62747189 83.00634237 31.58702858 86.52690763 31.53681374 90.04763412 C31.51211642 92.03826001 31.50211553 94.02905075 31.49235535 96.01980591 C31.47256119 97.24061859 31.45276703 98.46143127 31.43237305 99.71923828 C31.42126999 100.78957306 31.41016693 101.85990784 31.39872742 102.962677 C30.93020018 106.5317031 29.86425823 108.93220814 28 112 C23.73498371 114.8433442 20.00762506 114.6307024 15 114 C10.92014138 112.46342987 8.08429462 110.08429462 5 107 C5 112.61 5 118.22 5 124 C13.52570975 128.87183414 20.56606738 130.65468877 30.38671875 128.46875 C37.21084274 126.07705702 41.13329608 122.571656 44.25 116.125 C45.00023438 114.61292969 45.00023438 114.61292969 45.765625 113.0703125 C47.77751725 108.06604887 48.12501897 103.2588418 48.11352539 97.90283203 C48.11344986 96.72206085 48.11337433 95.54128967 48.11329651 94.32473755 C48.10813522 93.06515228 48.10297394 91.80556702 48.09765625 90.5078125 C48.0962413 89.20673553 48.09482635 87.90565857 48.09336853 86.56515503 C48.08956844 83.12270147 48.07975983 79.68029075 48.06866455 76.237854 C48.05839625 72.71847106 48.05385934 69.19908113 48.04882812 65.6796875 C48.03813509 58.78643906 48.02055886 51.89322601 48 45 C42.72 45 37.44 45 32 45 Z M68 45 C67.95030014 52.48900401 67.9141388 59.97791047 67.89013672 67.46704102 C67.88012303 70.01100336 67.86650815 72.55495432 67.84912109 75.09887695 C67.82466842 78.77037376 67.81347021 82.44171743 67.8046875 86.11328125 C67.79436493 87.23769119 67.78404236 88.36210114 67.77340698 89.52058411 C67.77191977 100.15610259 68.22105012 111.74261854 75.79296875 119.94140625 C84.09000365 127.62860106 92.53678461 129.36200372 103.65625 129.19921875 C112.60441762 128.66609194 118.32409441 125.8441708 124.796875 119.60546875 C131.02607823 112.2386628 133.13538999 103.75925656 133.11352539 94.27001953 C133.11344986 93.16933136 133.11337433 92.06864319 133.11329651 90.93460083 C133.10813522 89.76251068 133.10297394 88.59042053 133.09765625 87.3828125 C133.0962413 86.17051971 133.09482635 84.95822693 133.09336853 83.709198 C133.08778345 79.84777327 133.07523361 75.98640712 133.0625 72.125 C133.05748308 69.50260501 133.0529205 66.8802091 133.04882812 64.2578125 C133.03781889 57.8385192 133.02056444 51.41926952 133 45 C127.39 45 121.78 45 116 45 C116.01571045 47.18556519 116.01571045 47.18556519 116.03173828 49.4152832 C116.06815975 54.86284899 116.0909806 60.31040417 116.10986328 65.75805664 C116.11987064 68.10801 116.13348067 70.45795107 116.15087891 72.80786133 C116.17535995 76.20136566 116.1865361 79.59470418 116.1953125 82.98828125 C116.20563507 84.02519608 116.21595764 85.0621109 116.22659302 86.13044739 C116.22796145 95.19104444 116.20579555 104.88158745 110 112 C105.51896569 114.74582528 101.10380107 114.71927631 96 114 C92.14168355 112.66417951 89.01139116 110.84596394 87.00614929 107.18605042 C84.70077738 100.46758183 84.61258434 94.14479728 84.70703125 87.08984375 C84.71127609 85.88179581 84.71552094 84.67374786 84.71989441 83.42909241 C84.73658906 79.59832788 84.77422526 75.76810358 84.8125 71.9375 C84.82755869 69.32878368 84.84124502 66.72005905 84.85351562 64.11132812 C84.88646258 57.74067958 84.93818193 51.37043116 85 45 C79.39 45 73.78 45 68 45 Z M156 45 C156 72.39 156 99.78 156 128 C160.95 128 165.9 128 171 128 C171 111.5 171 95 171 78 C171.66 78 172.32 78 173 78 C173.24492187 78.69609375 173.48984375 79.3921875 173.7421875 80.109375 C175.18808681 83.43224919 177.07571057 86.28272187 179.125 89.25 C184.75304837 97.52780484 190.11596758 105.97114588 195.46533203 114.43066406 C196.12388184 115.46674805 196.78243164 116.50283203 197.4609375 117.5703125 C198.04665527 118.49602051 198.63237305 119.42172852 199.23583984 120.37548828 C199.8180127 121.24157715 200.40018555 122.10766602 201 123 C201.48549316 123.9369873 201.97098633 124.87397461 202.47119141 125.83935547 C205.96620515 129.29918741 205.96620515 129.29918741 217 128 C217 100.61 217 73.22 217 45 C212.05 45 207.1 45 202 45 C202 62.16 202 79.32 202 97 C201.34 97 200.68 97 200 97 C199.75507813 96.31421875 199.51015625 95.6284375 199.2578125 94.921875 C197.77549443 91.47847775 195.88453567 88.40063288 193.875 85.25 C193.4526709 84.5811377 193.0303418 83.91227539 192.59521484 83.22314453 C191.06916929 80.81176775 189.53511876 78.40561096 188 76 C187.34966797 74.97938477 186.69933594 73.95876953 186.02929688 72.90722656 C179.87318065 63.21341846 179.87318065 63.21341846 173.62207031 53.58105469 C172 51 172 51 171.05761719 48.92675781 C170.264406 46.99105642 170.264406 46.99105642 168 45 C164.04 45 160.08 45 156 45 Z M328 45 C328 72.39 328 99.78 328 128 C333.28 128 338.56 128 344 128 C344 100.61 344 73.22 344 45 C338.72 45 333.44 45 328 45 Z " fill="#000000" transform="translate(0,44)"/>
<path d="M0 0 C8.07651906 6.50943327 12.51781851 15.80784254 14.53125 25.875 C15.81265382 40.48300357 12.77688586 52.1502559 3.95703125 63.96484375 C-4.08391595 73.37319787 -14.6067245 77.53358541 -26.703125 78.8125 C-38.66163773 79.23769156 -49.93084821 76.25195799 -59.15625 68.4375 C-67.52042443 60.58127139 -72.30053535 50.89206634 -73.15625 39.4375 C-73.43174254 25.38738043 -68.92504073 12.90787756 -59.3828125 2.50390625 C-42.72443307 -13.30455587 -18.03915779 -13.07185347 0 0 Z M-48.59375 16.1875 C-53.77259366 24.05112663 -55.2666651 32.09254592 -54.15625 41.4375 C-52.23515656 48.43809475 -48.25951557 54.96088614 -41.96875 58.7578125 C-34.78081879 62.05228097 -27.23841014 62.80400227 -19.5703125 60.7421875 C-13.00368737 58.14607989 -9.89144212 54.4740862 -6.40625 48.375 C-2.91191799 40.16331979 -3.27541241 31.20060391 -6.12890625 22.82421875 C-9.15430912 15.79562121 -13.35082453 11.39327341 -20.3828125 8.2890625 C-30.9110721 5.05644195 -41.54582109 7.52911067 -48.59375 16.1875 Z " fill="#000000" transform="translate(821.15625,95.5625)"/>
<path d="M0 0 C3.35094681 4.11687751 4.98611259 7.84144878 5.5625 13.125 C4.9690794 18.76249568 2.87880789 23.71893158 0.1875 28.6875 C0.868125 28.8525 1.54875 29.0175 2.25 29.1875 C7.42786502 31.83151618 10.95410158 36.32795519 13.625 41.4375 C15.22961006 50.70858032 15.02459209 59.85387219 9.74609375 67.87890625 C3.34783737 75.93981857 -4.9581695 78.22844456 -14.8125 79.6875 C-18.44350444 79.94654986 -22.04855453 79.96838214 -25.6875 79.9375 C-27.04294922 79.94910156 -27.04294922 79.94910156 -28.42578125 79.9609375 C-35.58081616 79.94063953 -41.55756482 78.89665586 -48.8125 77.6875 C-48.8125 50.2975 -48.8125 22.9075 -48.8125 -5.3125 C-33.19776556 -10.51741148 -13.27972133 -10.91888198 0 0 Z M-30.8125 6.6875 C-30.8125 12.9575 -30.8125 19.2275 -30.8125 25.6875 C-21.45969303 26.28537688 -21.45969303 26.28537688 -13.8125 21.6875 C-12.19059985 18.44369969 -12.2695522 15.19319996 -12.8125 11.6875 C-14.325072 8.42192766 -14.325072 8.42192766 -17.8125 6.6875 C-22.23482153 6.27524969 -26.35196434 6.46222042 -30.8125 6.6875 Z M-30.8125 40.6875 C-30.84137236 44.49998426 -30.85925492 48.3124407 -30.875 52.125 C-30.88337891 53.21361328 -30.89175781 54.30222656 -30.90039062 55.42382812 C-30.90361328 56.45830078 -30.90683594 57.49277344 -30.91015625 58.55859375 C-30.91539307 59.51693115 -30.92062988 60.47526855 -30.92602539 61.46264648 C-31.0630313 63.66035339 -31.0630313 63.66035339 -29.8125 64.6875 C-21.34963042 65.33848997 -13.99278238 65.65846472 -6.8125 60.6875 C-3.4538318 57.76220834 -3.01920007 54.15908351 -2.6953125 49.87109375 C-2.67821988 47.47852457 -2.67821988 47.47852457 -4.25 44.8125 C-10.79846853 39.38206268 -22.89191304 36.72720652 -30.8125 40.6875 Z " fill="#000000" transform="translate(576.8125,94.3125)"/>
<path d="M0 0 C6.21638739 6.89045349 6.47642432 13.61835813 6.3046875 22.625 C5.66837668 29.67336604 2.94492781 33.36693495 -2.25 38 C-3.48933914 39.01318236 -4.73575929 40.01806547 -6 41 C-4.6073777 45.48781159 -2.84147832 49.60516389 -0.77734375 53.82421875 C-0.47180069 54.45229935 -0.16625763 55.08037994 0.14854431 55.72749329 C1.11638038 57.71588338 2.08908737 59.70183474 3.0625 61.6875 C4.03882361 63.68418647 5.01405703 65.68138716 5.98716736 67.67964172 C6.86674154 69.48510336 7.74980906 71.28886188 8.63305664 73.0925293 C10 76 10 76 11 79 C4.4 79 -2.2 79 -9 79 C-9.99 77.06125 -10.98 75.1225 -12 73.125 C-12.34047363 72.46298584 -12.68094727 71.80097168 -13.03173828 71.11889648 C-14.8558533 67.50430193 -16.47483922 63.87714744 -17.9296875 60.09765625 C-18.41695312 58.8744165 -18.41695312 58.8744165 -18.9140625 57.62646484 C-19.54599843 56.02254209 -20.14861933 54.40670317 -20.71875 52.77978516 C-21.65821345 50.21599566 -21.65821345 50.21599566 -24 47 C-26.97 46.67 -29.94 46.34 -33 46 C-33 56.56 -33 67.12 -33 78 C-38.94 78 -44.88 78 -51 78 C-51 49.95 -51 21.9 -51 -7 C-15.53263613 -10.22430581 -15.53263613 -10.22430581 0 0 Z M-33 8 C-33.02887236 11.81248426 -33.04675492 15.6249407 -33.0625 19.4375 C-33.07087891 20.52611328 -33.07925781 21.61472656 -33.08789062 22.73632812 C-33.09111328 23.77080078 -33.09433594 24.80527344 -33.09765625 25.87109375 C-33.10289307 26.82943115 -33.10812988 27.78776855 -33.11352539 28.77514648 C-33.2505313 30.97285339 -33.2505313 30.97285339 -32 32 C-25.37585375 32.67145342 -19.93717713 32.02066907 -14 29 C-11.21216505 26.03792537 -10.7785944 23.44208572 -10.5625 19.5 C-10.68966745 16.31551512 -11.02322583 14.95633544 -12.5625 12.0625 C-17.20108943 8.13753971 -21.88338932 7.90908348 -27.74609375 7.95703125 C-29.22420532 7.96633667 -29.22420532 7.96633667 -30.73217773 7.97583008 C-31.48055908 7.98380615 -32.22894043 7.99178223 -33 8 Z " fill="#000000" transform="translate(730,94)"/>
<path d="M0 0 C2.18890779 3.28336168 2.23999145 4.17472677 2.1953125 7.97119141 C2.18870605 8.98299469 2.18209961 9.99479797 2.17529297 11.03726196 C2.15869629 12.13098114 2.14209961 13.22470032 2.125 14.3515625 C2.11742676 15.48016693 2.10985352 16.60877136 2.10205078 17.77157593 C2.06936071 22.60424496 2.01337633 27.43657703 1.95898438 32.26904297 C1.92264314 35.79653334 1.89855133 39.32396715 1.875 42.8515625 C1.85840332 43.93313629 1.84180664 45.01471008 1.82470703 46.12905884 C1.45921706 56.44956318 1.45921706 56.44956318 5.35083008 65.62051392 C10.0335379 69.69176414 13.93421497 70.41123966 20 70 C23.59147405 68.68773064 25.48835412 67.67043254 27.8125 64.625 C29.79782285 60.2363916 30.12981324 56.07039096 30.20532227 51.29174805 C30.22526749 50.17096359 30.24521271 49.05017914 30.26576233 47.89543152 C30.28247482 46.6963063 30.29918732 45.49718109 30.31640625 44.26171875 C30.33718735 43.02581497 30.35796844 41.78991119 30.37937927 40.51655579 C30.43359931 37.24347874 30.48387578 33.9703726 30.53222656 30.69720459 C30.5826157 27.3521174 30.63828816 24.00712276 30.69335938 20.66210938 C30.80035946 14.10814021 30.90167736 7.55410486 31 1 C36.94 0.67 42.88 0.34 49 0 C49.06803284 7.79795886 49.12296336 15.59575273 49.15543652 23.39392757 C49.17102948 27.01574248 49.19214953 30.63734214 49.22631836 34.2590332 C49.25914149 37.7603775 49.2769008 41.261516 49.28463173 44.7630024 C49.29279505 46.73537617 49.31617711 48.70766826 49.33988953 50.67991638 C49.34189987 61.50902471 47.7332325 69.97837552 40.05859375 78.0390625 C32.91107633 84.87581829 27.07834211 87.07832471 17.25 87.4375 C6.63161108 87.15113568 -2.47756588 84.79495827 -10.19140625 77.22265625 C-15.28751566 70.95983496 -17.12992279 63.8826293 -17.11352539 55.94628906 C-17.11344986 54.72532532 -17.11337433 53.50436157 -17.11329651 52.24639893 C-17.10813522 50.93274353 -17.10297394 49.61908813 -17.09765625 48.265625 C-17.09579021 46.9037074 -17.09436718 45.54178912 -17.09336853 44.17987061 C-17.08955803 40.60258111 -17.07974032 37.02533248 -17.06866455 33.44805908 C-17.05841884 29.79480543 -17.05386415 26.14154514 -17.04882812 22.48828125 C-17.03811669 15.32550224 -17.02105794 8.16275686 -17 1 C-14.20882755 0.75196219 -11.41884926 0.52585666 -8.625 0.3125 C-7.43390625 0.20325195 -7.43390625 0.20325195 -6.21875 0.09179688 C-3.9140625 -0.07421875 -3.9140625 -0.07421875 0 0 Z " fill="#000000" transform="translate(459,87)"/>
<path d="M0 0 C0.33 10.56 0.66 21.12 1 32 C3.97 27.71 6.94 23.42 10 19 C11.94594631 16.3010155 13.89546171 13.61104802 15.875 10.9375 C16.56335938 10.00260742 16.56335938 10.00260742 17.265625 9.04882812 C18.50750135 7.36368088 19.75133305 5.68012101 21 4 C21.44786865 3.28626221 21.8957373 2.57252441 22.35717773 1.8371582 C24 0 24 0 26.17651367 -0.54589844 C26.99869385 -0.5668457 27.82087402 -0.58779297 28.66796875 -0.609375 C29.56064453 -0.64160156 30.45332031 -0.67382812 31.37304688 -0.70703125 C32.30181641 -0.72121094 33.23058594 -0.73539062 34.1875 -0.75 C35.12787109 -0.77964844 36.06824219 -0.80929688 37.03710938 -0.83984375 C39.35815916 -0.91053562 41.67820535 -0.96323165 44 -1 C43.39423014 2.20787711 42.35005978 4.16603811 40.33984375 6.72265625 C39.52495483 7.77005981 39.52495483 7.77005981 38.69360352 8.83862305 C37.82433228 9.93944214 37.82433228 9.93944214 36.9375 11.0625 C35.7574743 12.59088478 34.57778685 14.11953077 33.3984375 15.6484375 C31.38652682 18.23710339 29.35414147 20.80520846 27.2890625 23.3515625 C26.18691406 24.75535156 26.18691406 24.75535156 25.0625 26.1875 C24.41410156 26.98542969 23.76570312 27.78335938 23.09765625 28.60546875 C21.7086501 30.97727336 21.7086501 30.97727336 22.64575195 33.58154297 C24.35770645 37.90293955 26.42854318 41.96816864 28.5703125 46.08984375 C29.47585007 47.86102678 30.38077957 49.63252081 31.28515625 51.40429688 C32.70543836 54.17677211 34.12984356 56.94683154 35.56494141 59.71166992 C36.95454634 62.39386963 38.32614181 65.08466861 39.6953125 67.77734375 C40.12651398 68.5973436 40.55771545 69.41734344 41.00198364 70.26219177 C43.45995651 75.13456266 44.50271934 78.53714688 44 84 C37.93303301 84.77040851 32.11485027 85.09706112 26 85 C25.65324219 83.79472656 25.30648437 82.58945313 24.94921875 81.34765625 C22.71514525 74.64543575 19.21456307 68.60156692 15.8125 62.4375 C15.15102227 61.22627736 14.49020985 60.01469113 13.83007812 58.80273438 C12.22653659 55.86485901 10.61639707 52.93081584 9 50 C6.93044233 49.78388593 6.93044233 49.78388593 5.52294922 51.2578125 C0.0380817 57.68568054 0.10770569 63.81114342 0.125 72 C0.104375 73.25167969 0.08375 74.50335938 0.0625 75.79296875 C0.01564926 78.86169226 0.00426261 81.93092183 0 85 C-5.61 84.67 -11.22 84.34 -17 84 C-17 56.28 -17 28.56 -17 0 C-2 -1 -2 -1 0 0 Z " fill="#000000" transform="translate(868,88)"/>
<path d="M0 0 C5.94 0 11.88 0 18 0 C18.9178125 2.57167969 19.835625 5.14335938 20.78125 7.79296875 C28.42624923 29.30774748 28.42624923 29.30774748 36.4375 50.6875 C39.0401239 57.42366242 41.53844873 64.18841899 43.9375 71 C44.23261475 71.83233154 44.52772949 72.66466309 44.83178711 73.5222168 C45.1025708 74.29863525 45.37335449 75.07505371 45.65234375 75.875 C45.88945068 76.55304688 46.12655762 77.23109375 46.37084961 77.9296875 C47.07406532 80.24372291 47.52568786 82.62843929 48 85 C41.4 84.67 34.8 84.34 28 84 C25.03 75.585 25.03 75.585 22 67 C13.09 67 4.18 67 -5 67 C-6.98 72.94 -8.96 78.88 -11 85 C-21.125 85 -21.125 85 -25.5625 84.5 C-26.34616943 84.41169922 -27.12983887 84.32339844 -27.93725586 84.23242188 C-28.61796143 84.15572266 -29.29866699 84.07902344 -30 84 C-25.74759355 71.05686698 -21.28333482 58.19991367 -16.6875 45.375 C-16.19901077 44.00882538 -16.19901077 44.00882538 -15.70065308 42.61505127 C-10.60189537 28.35803033 -5.40315744 14.14485118 0 0 Z M8 24 C6.6618184 27.95671116 5.330278 31.91562528 4 35.875 C3.6184375 37.00292969 3.236875 38.13085938 2.84375 39.29296875 C2.4828125 40.36933594 2.121875 41.44570312 1.75 42.5546875 C1.41484375 43.54968262 1.0796875 44.54467773 0.734375 45.56982422 C-0.09642355 47.89596371 -0.09642355 47.89596371 0 50 C5.61 50 11.22 50 17 50 C14.36 41.42 11.72 32.84 9 24 C8.67 24 8.34 24 8 24 Z " fill="#000000" transform="translate(622,88)"/>
<path d="M0 0 C17.66666667 0 17.66666667 0 25.25 5.25 C32.51304548 12.51304548 33.72882275 21.08508162 34 31 C33.51978268 39.95405208 31.36477436 45.95373898 24.8125 52.1875 C18.59354637 57.2503661 11.84537497 58.53188983 4 58 C2.68 57.67 1.36 57.34 0 57 C0 38.19 0 19.38 0 0 Z " fill="#000000" transform="translate(257,102)"/>
</svg>
