<?xml version="1.0" encoding="UTF-8"?>
<svg version="1.1" xmlns="http://www.w3.org/2000/svg" width="912" height="273">
<path d="M0 0 C119.46 0 238.92 0 362 0 C362.33 14.85 362.66 29.7 363 45 C370.49195841 57.49308158 370.49195841 57.49308158 378.0625 69.9375 C378.54654297 70.72833984 379.03058594 71.51917969 379.52929688 72.33398438 C380.68561244 74.22301476 381.84271184 76.11156531 383 78 C388.1763439 69.81617137 393.0190126 61.49756295 397.67333984 53.00634766 C398.07762207 52.2694873 398.4819043 51.53262695 398.8984375 50.7734375 C399.43476807 49.78996338 399.43476807 49.78996338 399.98193359 48.78662109 C400.91578298 47.1477938 401.95371285 45.56943072 403 44 C409.27 44.33 415.54 44.66 422 45 C422 72.72 422 100.44 422 129 C416.06 129.33 410.12 129.66 404 130 C403.67 112.51 403.34 95.02 403 77 C398.67346235 84.93004579 398.67346235 84.93004579 394.3671875 92.87109375 C393.53682322 94.39342825 392.70609894 95.91556645 391.875 97.4375 C391.25044922 98.60055664 391.25044922 98.60055664 390.61328125 99.78710938 C388.44984385 103.73080483 386.45262806 107.01673843 383 110 C381.70685914 108.00094166 380.41552486 106.0007466 379.125 104 C378.77953125 103.46632813 378.4340625 102.93265625 378.078125 102.3828125 C374.94482938 97.52080206 371.87922481 92.61719418 368.81591797 87.7109375 C368.35225327 86.9686792 367.88858856 86.2264209 367.41087341 85.46166992 C366.27373627 83.6412253 365.13684363 81.82062794 364 80 C363.99061433 80.54537383 363.98122866 81.09074766 363.97155857 81.65264797 C363.74314959 94.9052806 363.50928904 108.15780728 363.26950932 121.41023922 C363.15372118 127.81894205 363.03976667 134.22766677 362.92993164 140.63647461 C362.82396536 146.81567481 362.71327542 152.99477363 362.59924126 159.17383003 C362.55647236 161.5370234 362.51543623 163.90024876 362.4761219 166.26350212 C362.42097453 169.56110366 362.35979236 172.85854002 362.29711914 176.15600586 C362.28201294 177.14358887 362.26690674 178.13117188 362.25134277 179.14868164 C362.2331398 180.04195663 362.21493683 180.93523163 362.19618225 181.85557556 C362.18235536 182.63633422 362.16852846 183.41709288 362.15428257 184.22151089 C362 186 362 186 361 187 C359.08174138 187.09768372 357.15982545 187.12371314 355.23908138 187.12304783 C353.97958453 187.12503888 352.72008768 187.12702993 351.42242426 187.12908131 C350.0065458 187.12622771 348.59066752 187.12328211 347.17478943 187.12025452 C345.68487326 187.12069009 344.19495716 187.12156473 342.70504147 187.12284368 C338.59132298 187.12509143 334.47763028 187.12106356 330.36391509 187.11606562 C325.93512509 187.11176529 321.50633666 187.11320725 317.07754517 187.1139679 C309.39787384 187.1144934 301.71821099 187.11134387 294.03854179 187.10573006 C282.93489586 187.09761858 271.83125404 187.0950002 260.72760547 187.09374207 C242.71464156 187.09155099 224.70168216 187.0848894 206.6887207 187.07543945 C189.18611676 187.06626677 171.68351405 187.0591967 154.1809082 187.05493164 C153.09185761 187.05466364 152.00280702 187.05439565 150.88075489 187.05411953 C142.36423638 187.05204022 133.84771784 187.05008326 125.33119929 187.04816496 C83.55412871 187.03872357 41.77706944 187.0186071 0 187 C0 125.29 0 63.58 0 0 Z " fill="#FDFDFD" transform="translate(0,44)"/>
<path d="M0 0 C2.06553096 -0.00959819 4.13002003 -0.04055288 6.1953125 -0.07226562 C13.51760321 -0.13199774 19.86734845 0.21037336 26.6015625 3.24023438 C27.67664063 3.68882813 28.75171875 4.13742188 29.859375 4.59960938 C37.87941894 8.48943995 44.67922395 12.93410567 48.6015625 21.24023438 C48.6015625 22.23023437 48.6015625 23.22023438 48.6015625 24.24023438 C49.2615625 24.24023438 49.9215625 24.24023438 50.6015625 24.24023438 C52.46825965 29.78106559 52.91987463 34.66210047 52.8515625 40.49023438 C52.84032349 41.74876221 52.84032349 41.74876221 52.82885742 43.03271484 C52.6060572 55.92027651 50.11142924 65.96343741 41.24609375 75.68164062 C30.74791655 85.6312195 17.22391622 86.84410101 3.4765625 86.55273438 C2.05470067 86.54121015 0.63282355 86.53143479 -0.7890625 86.5234375 C-11.03514441 86.42188092 -11.03514441 86.42188092 -13.3984375 85.24023438 C-13.42156047 74.30526966 -13.43935235 63.37031072 -13.45024967 52.43532658 C-13.4554786 47.3583242 -13.46257642 42.28133849 -13.47387695 37.2043457 C-13.48470549 32.30902886 -13.49071426 27.41372809 -13.49331474 22.51840019 C-13.49516905 20.64640487 -13.49878978 18.77441047 -13.50416756 16.90242195 C-13.51137754 14.28982738 -13.51242846 11.67730011 -13.51196289 9.06469727 C-13.51555817 8.28283051 -13.51915344 7.50096375 -13.52285767 6.69540405 C-13.50503873 -2.48408851 -7.9483565 0.02232684 0 0 Z " fill="#040404" transform="translate(254.3984375,86.759765625)"/>
<path d="M0 0 C8.38993716 6.7232493 13.99813418 16.34884457 15.546875 27.03515625 C16.64895718 39.50501198 14.64450757 51.8414226 6.81640625 61.921875 C-2.13163164 72.37940798 -11.83597478 78.14934385 -25.66015625 79.83984375 C-37.49463482 80.33461856 -49.31782574 77.17691284 -58.3828125 69.3046875 C-61.40861331 66.24074634 -63.94108636 63.06000738 -66.2421875 59.421875 C-66.63277344 58.80699219 -67.02335938 58.19210938 -67.42578125 57.55859375 C-73.16951198 47.39660861 -73.0595573 35.49099692 -70.55859375 24.38671875 C-67.58260136 14.1360783 -61.34544573 4.29843378 -52.2421875 -1.578125 C-35.2719058 -10.82524958 -16.22549355 -11.42003379 0 0 Z M-47.921875 17.3203125 C-52.79369059 25.0748592 -54.45598117 33.36796505 -53.2421875 42.421875 C-51.30356163 49.42488869 -47.3550126 55.93949128 -41.0546875 59.7421875 C-33.79308421 63.07042234 -26.05328234 64.03438481 -18.3984375 61.46875 C-11.08468625 58.07000677 -7.47162848 53.80345439 -4.2421875 46.421875 C-1.47909321 37.37902095 -3.05805497 27.42233598 -7.42578125 19.19140625 C-11.14331395 13.5782478 -15.7986619 10.33990663 -22.2421875 8.421875 C-32.78097591 6.99224344 -41.23812768 8.73735829 -47.921875 17.3203125 Z " fill="#FEFEFE" transform="translate(820.2421875,95.578125)"/>
<path d="M0 0 C3.35094681 4.11687751 4.98611259 7.84144878 5.5625 13.125 C5.02674555 18.21466724 3.87265599 23.00234401 0.1875 26.6875 C0.94675781 27.30496094 1.70601562 27.92242187 2.48828125 28.55859375 C9.56033793 34.58497668 13.41928113 38.90493606 14.484375 48.30859375 C14.88183269 56.09214012 13.39773592 63.52808374 8.5625 69.79296875 C-0.41850351 78.56815759 -13.40792842 79.8658718 -25.375 79.875 C-26.60186523 79.89336914 -26.60186523 79.89336914 -27.85351562 79.91210938 C-35.17946741 79.92910694 -41.33651504 78.83765153 -48.8125 77.6875 C-48.8125 50.2975 -48.8125 22.9075 -48.8125 -5.3125 C-33.19776556 -10.51741148 -13.27972133 -10.91888198 0 0 Z M-30.8125 6.6875 C-30.8125 12.9575 -30.8125 19.2275 -30.8125 25.6875 C-21.45969303 26.28537688 -21.45969303 26.28537688 -13.8125 21.6875 C-12.19571146 18.45392291 -12.24326098 15.18329727 -12.8125 11.6875 C-14.85675786 8.58814132 -16.36195734 7.05658826 -20.0078125 6.12890625 C-24.06651494 5.58640642 -26.77227067 5.67744267 -30.8125 6.6875 Z M-30.8125 40.6875 C-30.91182153 42.38308726 -30.94330007 44.08275747 -30.9453125 45.78125 C-30.94660156 46.81121094 -30.94789063 47.84117187 -30.94921875 48.90234375 C-30.94535156 49.98644531 -30.94148437 51.07054687 -30.9375 52.1875 C-30.94136719 53.27160156 -30.94523438 54.35570312 -30.94921875 55.47265625 C-30.94792969 56.50261719 -30.94664062 57.53257812 -30.9453125 58.59375 C-30.94418457 59.54572266 -30.94305664 60.49769531 -30.94189453 61.47851562 C-31.05949456 63.66202138 -31.05949456 63.66202138 -29.8125 64.6875 C-21.34963042 65.33848997 -13.99278238 65.65846472 -6.8125 60.6875 C-3.40111662 57.71629512 -3.23817648 54.20337047 -2.73046875 49.90625 C-2.82714725 47.29132674 -3.3864368 45.87101317 -4.8125 43.6875 C-10.79808739 40.17422044 -15.656953 39.52343408 -22.5 39.5625 C-23.18900391 39.55863281 -23.87800781 39.55476563 -24.58789062 39.55078125 C-27.98643379 39.25764086 -27.98643379 39.25764086 -30.8125 40.6875 Z " fill="#FEFEFE" transform="translate(576.8125,95.3125)"/>
<path d="M0 0 C4.36121005 3.69754765 7.19134037 7.57402112 9 13 C10.20869544 29.70377474 10.20869544 29.70377474 5 36 C2.46127386 38.51934655 -0.19973329 40.78056433 -3 43 C-0.01874567 50.85665131 3.50412942 58.38858973 7.1875 65.9375 C8.26591613 68.15417352 9.34281355 70.37158674 10.41796875 72.58984375 C11.12602661 74.04185181 11.12602661 74.04185181 11.84838867 75.52319336 C13 78 13 78 14 81 C7.4 81 0.8 81 -6 81 C-8.92024076 75.30927442 -11.74242783 69.73431371 -14.0859375 63.78515625 C-14.45404541 62.88313477 -14.82215332 61.98111328 -15.20141602 61.05175781 C-15.93472652 59.24385981 -16.63913225 57.42393266 -17.31225586 55.59277344 C-17.65909424 54.75391602 -18.00593262 53.91505859 -18.36328125 53.05078125 C-18.65501221 52.29450439 -18.94674316 51.53822754 -19.24731445 50.7590332 C-21.65392721 47.97658863 -21.65392721 47.97658863 -30 48 C-30 58.56 -30 69.12 -30 80 C-35.94 80 -41.88 80 -48 80 C-48 51.95 -48 23.9 -48 -5 C-14.53450808 -8.34654919 -14.53450808 -8.34654919 0 0 Z M-30 10 C-30 17.59 -30 25.18 -30 33 C-25.35710324 35.32144838 -19.41184406 34.38152111 -14.625 32.8125 C-12.08120204 31.71289012 -10.94299023 30.93942712 -9 28.875 C-7.5917004 24.82613864 -7.32332378 21.23691588 -8 17 C-9.92146285 13.38764983 -11.31304131 12.29441087 -15.0625 10.6875 C-20.13983254 9.68466479 -20.13983254 9.68466479 -30 10 Z " fill="#FEFEFE" transform="translate(727,93)"/>
<path d="M0 0 C4.29 0 8.58 0 13 0 C17.41084165 5.51355207 17.41084165 5.51355207 19.0625 8.75 C21.6446798 13.52823926 24.54894437 18.06950124 27.5 22.625 C27.962854 23.34139648 28.42570801 24.05779297 28.90258789 24.79589844 C31.09158434 28.15905289 33.31976125 31.47398543 35.67578125 34.72265625 C37.55717289 37.32788896 39.18661469 39.9653056 40.6875 42.8125 C42.00705589 45.30977027 42.98894211 46.98894211 45 49 C45.33 33.16 45.66 17.32 46 1 C51.28 1 56.56 1 62 1 C62 28.39 62 55.78 62 84 C49 84 49 84 45.76171875 81.26171875 C44.65820313 79.52539063 44.65820313 79.52539063 43.6875 77.6875 C43.31689453 77.09259766 42.94628906 76.49769531 42.56445312 75.88476562 C40.87755488 73.08370082 40 71.30990906 40 68 C39.34 68 38.68 68 38 68 C37.43925781 66.99453125 36.87851563 65.9890625 36.30078125 64.953125 C34.09748438 61.09856608 31.67890004 57.42276814 29.1875 53.75 C25.00626112 47.56903818 21.00980307 41.30111911 17 35 C16.67 51.17 16.34 67.34 16 84 C10.72 84 5.44 84 0 84 C0 56.28 0 28.56 0 0 Z " fill="#050505" transform="translate(155,88)"/>
<path d="M0 0 C0.00879936 1.04450317 0.00879936 1.04450317 0.01777649 2.11010742 C0.07589172 8.70066318 0.14807465 15.29090121 0.23571491 21.88113403 C0.28027556 25.26855042 0.31956199 28.6558505 0.34643555 32.04345703 C0.38008992 35.94593252 0.43241401 39.84778692 0.48828125 43.75 C0.49467117 44.95551514 0.5010611 46.16103027 0.50764465 47.40307617 C0.6391317 54.97961993 0.77795453 61.85850567 6.5 67.4375 C10.74270844 70.08919278 14.0610427 70.33484456 19 70 C22.59147405 68.68773064 24.48835412 67.67043254 26.8125 64.625 C28.79782285 60.2363916 29.12981324 56.07039096 29.20532227 51.29174805 C29.22526749 50.17096359 29.24521271 49.05017914 29.26576233 47.89543152 C29.28247482 46.6963063 29.29918732 45.49718109 29.31640625 44.26171875 C29.33718735 43.02581497 29.35796844 41.78991119 29.37937927 40.51655579 C29.43359931 37.24347874 29.48387578 33.9703726 29.53222656 30.69720459 C29.5826157 27.3521174 29.63828816 24.00712276 29.69335938 20.66210938 C29.80035946 14.10814021 29.90167736 7.55410486 30 1 C35.94 0.67 41.88 0.34 48 0 C48.09083683 7.76340441 48.16402205 15.52651155 48.20724869 23.29030323 C48.22800899 26.89645653 48.25611051 30.50222335 48.30175781 34.1081543 C48.34563443 37.59655674 48.36922369 41.08459054 48.37950897 44.57324791 C48.39035587 46.53339691 48.42151319 48.49340026 48.45318604 50.45332336 C48.45585814 61.24733754 46.56838878 70.30796213 38.921875 78.28125 C30.94885196 85.41159581 22.87893367 87.45253937 12.27734375 87.24609375 C3.78198052 86.60818209 -3.58068793 83.65832288 -10 78 C-17.9662156 68.63500564 -18.28973857 59.84772442 -18.1953125 47.97265625 C-18.19157681 46.61502797 -18.18873247 45.25739697 -18.18673706 43.89976501 C-18.17914431 40.34712118 -18.15953397 36.79464397 -18.1373291 33.24206543 C-18.11677613 29.6086655 -18.10771524 25.97523833 -18.09765625 22.34179688 C-18.07628339 15.22779691 -18.04220087 8.1139094 -18 1 C-15.37504621 0.83257698 -12.75004205 0.6660283 -10.125 0.5 C-9.00544922 0.42845703 -9.00544922 0.42845703 -7.86328125 0.35546875 C-2.2265625 0 -2.2265625 0 0 0 Z " fill="#FEFEFE" transform="translate(460,88)"/>
<path d="M0 0 C0.495 15.345 0.495 15.345 1 31 C7.42295824 22.48584605 13.80993073 13.96570607 19.96435547 5.25537109 C22.91059639 1.08940361 22.91059639 1.08940361 24 0 C25.48638992 -0.15655027 26.97949127 -0.25066943 28.47265625 -0.31640625 C29.37177734 -0.35830078 30.27089844 -0.40019531 31.19726562 -0.44335938 C32.14279297 -0.48267578 33.08832031 -0.52199219 34.0625 -0.5625 C35.01189453 -0.60568359 35.96128906 -0.64886719 36.93945312 -0.69335938 C39.29281353 -0.79979276 41.64628354 -0.90181008 44 -1 C43.39101579 2.35549364 42.20853055 4.32889689 40.0859375 6.9765625 C39.19551758 8.09949707 39.19551758 8.09949707 38.28710938 9.24511719 C37.34061523 10.42315918 37.34061523 10.42315918 36.375 11.625 C35.10038508 13.24647097 33.826937 14.8688599 32.5546875 16.4921875 C30.91665526 18.57311747 29.27801567 20.65302226 27.62207031 22.71972656 C26.56252702 24.04833231 25.52951199 25.39799028 24.5 26.75 C23.68015625 27.79414062 23.68015625 27.79414062 22.84375 28.859375 C21.56796166 32.09609727 22.74298567 33.77445813 24 37 C25.44753742 40.06989842 27.0054588 43.07839967 28.5703125 46.08984375 C29.47585007 47.86102678 30.38077957 49.63252081 31.28515625 51.40429688 C32.70543836 54.17677211 34.12984356 56.94683154 35.56494141 59.71166992 C36.95454634 62.39386963 38.32614181 65.08466861 39.6953125 67.77734375 C40.12651398 68.5973436 40.55771545 69.41734344 41.00198364 70.26219177 C41.59292313 71.43359459 41.59292313 71.43359459 42.19580078 72.62866211 C42.71969894 73.6440934 42.71969894 73.6440934 43.25418091 74.68003845 C44 77 44 77 44 84 C38.06 84.33 32.12 84.66 26 85 C25.4225 83.30875 24.845 81.6175 24.25 79.875 C20.26077142 69.39600597 14.49461254 59.74647416 9 50 C6.92650536 49.78212129 6.92650536 49.78212129 5.52075195 51.27758789 C0.16569428 57.59824451 0.13868122 63.39127815 0.1875 71.4375 C0.16340022 73.79040005 0.13623334 76.14327141 0.10546875 78.49609375 C0.10699951 79.52919678 0.10853027 80.5622998 0.11010742 81.62670898 C0 84 0 84 -1 85 C-6.28 84.67 -11.56 84.34 -17 84 C-17 56.28 -17 28.56 -17 0 C-2 -1 -2 -1 0 0 Z " fill="#FEFEFE" transform="translate(868,89)"/>
<path d="M0 0 C5.94 0 11.88 0 18 0 C19.21623047 3.37605469 19.21623047 3.37605469 20.45703125 6.8203125 C25.69264904 21.34590828 30.93316971 35.86962986 36.24728394 50.36672974 C36.932003 52.23500132 37.61554245 54.10370509 38.29907227 55.97241211 C40.17908843 61.09950535 42.07074761 66.21918853 44.05078125 71.30859375 C44.34412354 72.06688477 44.63746582 72.82517578 44.93969727 73.60644531 C45.67502959 75.49495773 46.42275649 77.37863239 47.171875 79.26171875 C48 82 48 82 47 85 C40.73 84.67 34.46 84.34 28 84 C25.03 75.585 25.03 75.585 22 67 C13.09 67 4.18 67 -5 67 C-6.98 72.94 -8.96 78.88 -11 85 C-17.27 84.67 -23.54 84.34 -30 84 C-25.73266903 71.06035124 -21.28375294 58.20108045 -16.6875 45.375 C-16.19901077 44.00882538 -16.19901077 44.00882538 -15.70065308 42.61505127 C-10.60189537 28.35803033 -5.40315744 14.14485118 0 0 Z M8 24 C6.6618184 27.95671116 5.330278 31.91562528 4 35.875 C3.6184375 37.00292969 3.236875 38.13085938 2.84375 39.29296875 C2.4828125 40.36933594 2.121875 41.44570312 1.75 42.5546875 C1.41484375 43.54968262 1.0796875 44.54467773 0.734375 45.56982422 C-0.09642355 47.89596371 -0.09642355 47.89596371 0 50 C5.61 50 11.22 50 17 50 C14.36 41.42 11.72 32.84 9 24 C8.67 24 8.34 24 8 24 Z " fill="#FEFEFE" transform="translate(622,89)"/>
<path d="M0 0 C5.61 0 11.22 0 17 0 C17.0093457 1.75062744 17.01869141 3.50125488 17.02832031 5.30493164 C17.06393459 11.10857083 17.11778774 16.9118892 17.18390274 22.71524906 C17.22330314 26.23165229 17.2555275 29.74780791 17.27099609 33.2644043 C17.28912827 37.31339155 17.33911133 41.36145506 17.390625 45.41015625 C17.39185364 46.66458023 17.39308228 47.91900421 17.39434814 49.21144104 C17.52738022 57.17702511 18.20336255 62.20336255 24 68 C29.09711057 69.72169068 34.73210174 69.87212201 40 69 C44.06952261 66.22081383 46.04211735 62.7590511 47 58 C47.11346171 56.0760203 47.17599684 54.14877892 47.20532227 52.22167969 C47.22526749 51.0607782 47.24521271 49.89987671 47.26576233 48.70379639 C47.28247482 47.45576233 47.29918732 46.20772827 47.31640625 44.921875 C47.33718735 43.64016418 47.35796844 42.35845337 47.37937927 41.03790283 C47.43444747 37.63823728 47.48392364 34.23851262 47.53222656 30.83874512 C47.58255332 27.36640186 47.63818093 23.89414395 47.69335938 20.421875 C47.80075425 13.61465584 47.90175013 6.80735723 48 0 C53.61 0 59.22 0 65 0 C65.09077338 7.78067502 65.16398612 15.56105478 65.20724869 23.3421154 C65.22802442 26.95614345 65.25615513 30.56978695 65.30175781 34.18359375 C65.34557814 37.67847537 65.36921218 41.17298976 65.37950897 44.66812515 C65.39037481 46.63441341 65.42154181 48.60055623 65.45318604 50.56661987 C65.45594851 61.72638203 63.01702466 69.84294208 55.2890625 78.01953125 C47.15421797 85.05769879 38.41425325 86.59340474 28 86 C24.3125 85.1875 24.3125 85.1875 21 84 C20.35417969 83.80535156 19.70835938 83.61070312 19.04296875 83.41015625 C11.33702272 80.92008956 6.71378476 76.82516087 2.82568359 69.71191406 C-0.68636034 62.45825405 -0.77282359 55.98944277 -0.5859375 48.046875 C-0.57471373 46.65156908 -0.56618863 45.25623913 -0.56021118 43.86090088 C-0.53756119 40.23044793 -0.47885574 36.60149031 -0.4119873 32.97161865 C-0.35004037 29.25081601 -0.32308579 25.52976604 -0.29296875 21.80859375 C-0.2290785 14.53830949 -0.12376144 7.26955675 0 0 Z " fill="#040404" transform="translate(68,88)"/>
<path d="M0 0 C5.28 0 10.56 0 16 0 C16.09095137 7.85924745 16.16408669 15.71819888 16.20724869 23.57783031 C16.22798121 27.22876478 16.25602991 30.87931556 16.30175781 34.5300293 C16.3457361 38.06382745 16.36924437 41.59726038 16.37950897 45.13131142 C16.39032181 47.11241851 16.42146133 49.09338195 16.45318604 51.07426453 C16.45558267 60.91311028 15.58195349 71.47824961 8.75 79.125 C1.7337673 85.06521382 -5.22095621 85.58254725 -14.27734375 85.4375 C-19.74386809 84.79505433 -23.33950404 82.86799751 -28 80 C-28 73.73 -28 67.46 -28 61 C-26.35 62.65 -24.7 64.3 -23 66 C-18.10664497 69.22516582 -13.70842023 69.76884627 -8 69 C-4.75714465 67.68905848 -3.44870015 66.90139475 -1.89102173 63.77217102 C-0.89023363 60.65849188 -0.72175548 58.10131582 -0.68115234 54.83276367 C-0.66128265 53.61187546 -0.64141296 52.39098724 -0.62094116 51.13310242 C-0.60938995 49.82460831 -0.59783875 48.5161142 -0.5859375 47.16796875 C-0.56721453 45.80746806 -0.54764027 44.44697883 -0.5272522 43.08650208 C-0.47604398 39.51753521 -0.43635813 35.94853074 -0.39910889 32.37939453 C-0.35899799 28.73265365 -0.30793808 25.08606766 -0.2578125 21.43945312 C-0.16118731 14.2930764 -0.0777527 7.14661061 0 0 Z " fill="#030303" transform="translate(32,88)"/>
<path d="M0 0 C1.75604178 -0.02299319 3.51217092 -0.039376 5.26831055 -0.05297852 C6.73520576 -0.06772972 6.73520576 -0.06772972 8.23173523 -0.08277893 C14.61389365 0.10806562 21.19031554 2.64281154 26.0859375 6.75 C27.58408879 8.44546878 28.8345485 10.06335755 30 12 C30.53560547 12.87978516 30.53560547 12.87978516 31.08203125 13.77734375 C34.39813995 21.80656013 34.429136 33.21075799 31.9765625 41.4296875 C28.81313583 48.43816317 24.93704548 52.65700475 18 56 C14.46615441 57.17794853 11.59722447 57.13264317 7.875 57.125 C5.98394531 57.12886719 5.98394531 57.12886719 4.0546875 57.1328125 C1 57 1 57 0 56 C-0.09365006 54.2507128 -0.11744438 52.49763746 -0.11352539 50.74584961 C-0.11344986 49.62476303 -0.11337433 48.50367645 -0.11329651 47.34861755 C-0.10813522 46.1288472 -0.10297394 44.90907684 -0.09765625 43.65234375 C-0.0962413 42.41078018 -0.09482635 41.16921661 -0.09336853 39.89002991 C-0.08870591 36.58394509 -0.07971497 33.27792854 -0.06866455 29.97186279 C-0.05844827 26.6003885 -0.05387045 23.22890717 -0.04882812 19.85742188 C-0.03777395 13.23826225 -0.02101736 6.61913507 0 0 Z " fill="#F7F7F7" transform="translate(257,102)"/>
<path d="M0 0 C5.28 0 10.56 0 16 0 C16 27.72 16 55.44 16 84 C10.39 84 4.78 84 -1 84 C-1.02255075 73.19541543 -1.04091493 62.39084637 -1.05181217 51.58624363 C-1.05704107 46.5697753 -1.06413883 41.55332385 -1.07543945 36.53686523 C-1.0862681 31.69990306 -1.09227679 26.86295716 -1.09487724 22.02598381 C-1.09673153 20.17631715 -1.10035222 18.32665143 -1.10573006 16.47699165 C-1.1129402 13.89552986 -1.11399095 11.31413618 -1.11352539 8.73266602 C-1.11712067 7.96014999 -1.12071594 7.18763397 -1.12442017 6.39170837 C-1.11405216 1.11405216 -1.11405216 1.11405216 0 0 Z " fill="#020202" transform="translate(329,88)"/>
</svg>
