<svg data-v-423bf9ae="" xmlns="http://www.w3.org/2000/svg" viewBox="0 0 597.7850660710857 60" class="font"><!----><!----><!----><g data-v-423bf9ae="" id="0744e757-9a1b-4e58-8dd4-42304c663c0f" fill="white" transform="matrix(4.92206705261137,0,0,4.92206705261137,-4.134537294604627,-18.211648090945936)"><path d="M4.94 12.05C4.94 12.63 4.83 13.16 4.61 13.64C4.38 14.13 4.03 14.56 3.58 14.91C2.90 15.46 2.02 15.76 1.06 15.81C0.94 15.79 0.84 15.68 0.84 15.54L0.84 13.90C0.84 13.78 0.94 13.65 1.06 13.62L1.12 13.61C1.67 13.55 2.76 13.27 2.76 12.05L2.76 5.96L1.12 5.96C0.97 5.96 0.84 5.85 0.84 5.70L0.84 4.06C0.84 3.91 0.97 3.78 1.12 3.78L4.61 3.78C4.75 3.78 4.89 3.86 4.93 3.98L4.93 3.99C4.94 4.00 4.94 4.02 4.94 4.05ZM14.83 12.05C14.83 13.22 14.35 14.22 13.47 14.92C12.73 15.50 11.76 15.82 10.72 15.82C9.69 15.82 8.72 15.50 7.98 14.92C7.10 14.22 6.62 13.22 6.62 12.05L6.62 4.07C6.62 3.92 6.75 3.78 6.90 3.78L8.54 3.78C8.69 3.78 8.81 3.92 8.81 4.07L8.81 12.05C8.81 13.58 10.53 13.64 10.72 13.64C10.92 13.64 12.64 13.58 12.64 12.05L12.64 4.07C12.64 3.92 12.77 3.78 12.91 3.78L14.56 3.78C14.70 3.78 14.83 3.92 14.83 4.07ZM24.71 15.89L18.69 9.32L18.69 15.53C18.69 15.68 18.58 15.81 18.42 15.81L16.79 15.81C16.63 15.81 16.51 15.68 16.51 15.53L16.51 3.70L22.53 10.26L22.53 4.06C22.53 3.91 22.65 3.78 22.79 3.78L24.44 3.78C24.58 3.78 24.71 3.91 24.71 4.06ZM29.67 15.81C31.02 15.82 32.38 15.37 33.50 14.45C36.05 12.35 36.43 8.55 34.31 5.99C33.14 4.55 31.40 3.79 29.67 3.79L26.67 3.79C26.52 3.79 26.39 3.92 26.39 4.06L26.39 15.47C26.39 15.67 26.52 15.81 26.67 15.81ZM32.63 7.38C33.98 9.00 33.74 11.42 32.10 12.75C31.40 13.34 30.53 13.64 29.67 13.62L28.57 13.62L28.57 5.98L29.67 5.98C30.77 5.98 31.88 6.45 32.63 7.38ZM40.63 5.95L40.63 13.61L42.46 13.61C42.66 13.61 42.81 13.73 42.81 13.89L42.81 15.53C42.81 15.68 42.66 15.81 42.46 15.81L36.53 15.81C36.37 15.81 36.25 15.68 36.25 15.53L36.25 13.89C36.25 13.73 36.37 13.61 36.53 13.61L38.43 13.61L38.43 5.95L36.53 5.95C36.37 5.95 36.25 5.84 36.25 5.68L36.25 4.05C36.25 3.89 36.37 3.77 36.53 3.77L42.46 3.77C42.66 3.77 42.81 3.89 42.81 4.05L42.81 5.68C42.81 5.84 42.66 5.95 42.46 5.95ZM50.93 3.79L55.51 8.37L60.09 3.79L60.09 15.54C60.09 15.69 59.98 15.82 59.82 15.82L58.21 15.82C58.06 15.82 57.93 15.69 57.93 15.54L57.93 8.99L55.51 11.41L53.09 8.99L53.09 15.54C53.09 15.69 52.98 15.82 52.82 15.82L51.20 15.82C51.06 15.82 50.93 15.69 50.93 15.54ZM70.11 12.05C70.11 13.22 69.64 14.22 68.75 14.92C68.01 15.50 67.05 15.82 66.01 15.82C64.97 15.82 64.01 15.50 63.27 14.92C62.38 14.22 61.91 13.22 61.91 12.05L61.91 4.07C61.91 3.92 62.03 3.78 62.19 3.78L63.83 3.78C63.98 3.78 64.09 3.92 64.09 4.07L64.09 12.05C64.09 13.58 65.81 13.64 66.01 13.64C66.21 13.64 67.93 13.58 67.93 12.05L67.93 4.07C67.93 3.92 68.05 3.78 68.19 3.78L69.85 3.78C69.99 3.78 70.11 3.92 70.11 4.07ZM79.41 9.80C80.16 9.13 80.54 8.23 80.54 7.34C80.54 6.38 80.11 5.46 79.34 4.80C78.54 4.13 77.45 3.78 76.17 3.78L72.07 3.78C71.92 3.78 71.79 3.91 71.79 4.07L71.79 5.21L74.13 8.71L71.79 8.71L71.79 15.53C71.79 15.68 71.92 15.82 72.07 15.82L76.17 15.82C79.04 15.82 80.54 14.03 80.54 12.26C80.54 11.33 80.14 10.44 79.41 9.80ZM74.93 5.96L76.17 5.96C77.67 5.96 78.36 6.68 78.36 7.34C78.36 7.91 77.84 8.51 76.73 8.67ZM73.98 13.62L73.98 10.89L76.17 10.89C77.67 10.89 78.36 11.61 78.36 12.26C78.36 12.92 77.67 13.62 76.17 13.62ZM89.66 11.16C89.66 11.00 89.53 10.89 89.38 10.89L88.45 10.89L86.74 4.05L86.73 3.98C86.69 3.88 86.59 3.81 86.48 3.81L84.64 3.81C84.53 3.81 84.43 3.88 84.39 3.98L84.38 4.06L81.54 15.41C81.54 15.43 81.54 15.44 81.52 15.44L81.52 15.50C81.52 15.67 81.65 15.79 81.79 15.79L83.48 15.79C83.59 15.79 83.71 15.71 83.73 15.60C83.73 15.58 83.75 15.57 83.75 15.57L84.36 13.06L86.76 13.06L87.37 15.55L87.39 15.60C87.43 15.71 87.53 15.79 87.64 15.79L89.33 15.79C89.49 15.79 89.60 15.67 89.60 15.50L89.60 15.47L89.59 15.40L89.00 13.06L89.38 13.06C89.53 13.06 89.66 12.95 89.66 12.80ZM84.91 10.89L85.57 8.30L86.21 10.89ZM99.61 15.37L97.38 11.42L97.08 10.89L97.01 10.77C99.04 10.32 100.09 8.82 100.09 7.35C100.09 6.38 99.64 5.46 98.87 4.82C98.08 4.14 96.98 3.79 95.70 3.79L91.62 3.79C91.46 3.79 91.34 3.92 91.34 4.06L91.34 5.17L91.48 5.42L91.48 5.43L93.34 8.71L91.34 8.71L91.34 15.54C91.34 15.69 91.46 15.82 91.62 15.82L93.25 15.82C93.39 15.82 93.52 15.69 93.52 15.54L93.52 10.89L94.57 10.89L94.86 11.42L97.26 15.65L97.29 15.69C97.33 15.76 97.41 15.82 97.51 15.82L99.39 15.82C99.54 15.82 99.65 15.69 99.65 15.53C99.65 15.48 99.65 15.44 99.62 15.40ZM95.55 8.19L94.30 5.98L95.70 5.98C97.22 5.98 97.89 6.69 97.89 7.35C97.89 7.91 97.38 8.53 96.25 8.68C96.12 8.69 95.98 8.71 95.84 8.71ZM106.74 15.82C103.42 15.82 100.72 13.12 100.72 9.80C100.72 6.48 103.42 3.78 106.74 3.78C110.05 3.78 112.76 6.48 112.76 9.80C112.76 13.12 110.05 15.82 106.74 15.82ZM106.74 5.96C104.62 5.96 102.90 7.69 102.90 9.80C102.90 11.91 104.62 13.62 106.74 13.62C108.85 13.62 110.56 11.91 110.56 9.80C110.56 7.69 108.85 5.96 106.74 5.96ZM122.29 15.53C122.29 15.68 122.18 15.81 122.02 15.81L120.02 15.81C119.94 15.81 119.87 15.78 119.81 15.71L119.80 15.68L116.41 10.92L116.41 15.53C116.41 15.68 116.30 15.81 116.14 15.81L114.51 15.81C114.35 15.81 114.23 15.68 114.23 15.53L114.23 8.69L115.51 8.69L114.25 4.20L114.23 4.09L114.23 4.06C114.23 3.91 114.35 3.78 114.51 3.78L116.21 3.78C116.33 3.78 116.44 3.86 116.47 3.98L117.57 7.92L119.78 3.93C119.84 3.84 119.92 3.78 120.04 3.78L121.90 3.78C122.05 3.78 122.18 3.91 122.18 4.06C122.18 4.10 122.16 4.14 122.15 4.19L122.12 4.23L118.71 10.37L122.22 15.33L122.26 15.37C122.28 15.41 122.29 15.47 122.29 15.53Z"></path></g><!----><!----></svg>